<svg width="50" height="50" viewBox="0 0 50 50" fill="none" xmlns="http://www.w3.org/2000/svg">
<path d="M40.0002 41.6668C36.2474 41.6668 32.4849 40.8029 28.7127 39.0752C24.9404 37.3474 21.4647 34.8939 18.2856 31.7147C15.1328 28.5356 12.6863 25.0488 10.946 21.2543C9.20433 17.4585 8.3335 13.7071 8.3335 10.0002V8.3335H17.5814L19.3481 16.8397L13.7314 22.0689C14.6814 23.7161 15.6654 25.221 16.6835 26.5835C17.7016 27.946 18.762 29.1745 19.8647 30.2689C20.9786 31.4356 22.2342 32.5259 23.6314 33.5397C25.0286 34.5536 26.6231 35.5536 28.4147 36.5397L33.8543 30.8981L41.6668 32.4731V41.6668H40.0002ZM12.7522 20.1127L17.1106 16.1127L15.9064 10.4168H10.4272C10.4689 12.0057 10.6835 13.6064 11.071 15.2189C11.4571 16.83 12.0175 18.4613 12.7522 20.1127ZM30.3564 37.4772C31.6384 38.1203 33.0897 38.6224 34.7106 38.9835C36.3314 39.3446 37.9557 39.537 39.5835 39.5606V34.1335L34.6085 33.1439L30.3564 37.4772Z" fill="black"/>
</svg>
